<svg id="visual" viewBox="0 0 900 600" width="900" height="600" xmlns="http://www.w3.org/2000/svg" xmlns:xlink="http://www.w3.org/1999/xlink" version="1.1"><rect x="0" y="0" width="900" height="600" fill="#FAFAFA"></rect><defs><linearGradient id="grad1_0" x1="33.3%" y1="100%" x2="100%" y2="0%"><stop offset="20%" stop-color="#c28400" stop-opacity="1"></stop><stop offset="80%" stop-color="#c28400" stop-opacity="1"></stop></linearGradient></defs><defs><linearGradient id="grad1_1" x1="33.3%" y1="100%" x2="100%" y2="0%"><stop offset="20%" stop-color="#c28400" stop-opacity="1"></stop><stop offset="80%" stop-color="#e6bd87" stop-opacity="1"></stop></linearGradient></defs><defs><linearGradient id="grad1_2" x1="33.3%" y1="100%" x2="100%" y2="0%"><stop offset="20%" stop-color="#fafafa" stop-opacity="1"></stop><stop offset="80%" stop-color="#e6bd87" stop-opacity="1"></stop></linearGradient></defs><defs><linearGradient id="grad2_0" x1="0%" y1="100%" x2="66.7%" y2="0%"><stop offset="20%" stop-color="#c28400" stop-opacity="1"></stop><stop offset="80%" stop-color="#c28400" stop-opacity="1"></stop></linearGradient></defs><defs><linearGradient id="grad2_1" x1="0%" y1="100%" x2="66.7%" y2="0%"><stop offset="20%" stop-color="#e6bd87" stop-opacity="1"></stop><stop offset="80%" stop-color="#c28400" stop-opacity="1"></stop></linearGradient></defs><defs><linearGradient id="grad2_2" x1="0%" y1="100%" x2="66.7%" y2="0%"><stop offset="20%" stop-color="#e6bd87" stop-opacity="1"></stop><stop offset="80%" stop-color="#fafafa" stop-opacity="1"></stop></linearGradient></defs><g transform="translate(900, 600)"><path d="M-459.7 0C-414.6 -60.9 -369.6 -121.7 -336.9 -194.5C-304.2 -267.3 -283.9 -351.9 -229.9 -398.1C-175.8 -444.3 -87.9 -452 0 -459.7L0 0Z" fill="#f2dbc0"></path><path d="M-306.5 0C-276.4 -40.6 -246.4 -81.2 -224.6 -129.7C-202.8 -178.2 -189.3 -234.6 -153.2 -265.4C-117.2 -296.2 -58.6 -301.3 0 -306.5L0 0Z" fill="#d6a04f"></path><path d="M-153.2 0C-138.2 -20.3 -123.2 -40.6 -112.3 -64.8C-101.4 -89.1 -94.6 -117.3 -76.6 -132.7C-58.6 -148.1 -29.3 -150.7 0 -153.2L0 0Z" fill="#c28400"></path></g><g transform="translate(0, 0)"><path d="M459.7 0C370.3 35.3 280.9 70.5 253.7 146.5C226.6 222.5 261.8 339.1 229.9 398.1C197.9 457.1 99 458.4 0 459.7L0 0Z" fill="#f2dbc0"></path><path d="M306.5 0C246.9 23.5 187.3 47 169.2 97.7C151.1 148.3 174.5 226.1 153.2 265.4C132 304.7 66 305.6 0 306.5L0 0Z" fill="#d6a04f"></path><path d="M153.2 0C123.4 11.8 93.6 23.5 84.6 48.8C75.5 74.2 87.3 113 76.6 132.7C66 152.4 33 152.8 0 153.2L0 0Z" fill="#c28400"></path></g></svg>