<svg xmlns="http://www.w3.org/2000/svg" version="1.1" xmlns:xlink="http://www.w3.org/1999/xlink" xmlns:svgjs="http://svgjs.com/svgjs" width="1440" height="560" preserveAspectRatio="none" viewBox="0 0 1440 560"><g mask="url(&quot;#SvgjsMask1002&quot;)" fill="none"><rect width="1440" height="560" x="0" y="0" fill="rgba(194, 132, 0, 1)"></rect><path d="M0,536.854C110.128,525.833,229.66,562.055,323.597,503.527C417.864,444.793,445.229,325.221,497.204,227.065C552.763,122.141,641.002,26.853,638.86,-91.854C636.632,-215.282,569.631,-330.348,485.513,-420.7C403.086,-509.236,290.488,-560.055,173.683,-591.509C58.839,-622.435,-68.458,-649.962,-175.82,-598.787C-279.699,-549.273,-298.042,-410.217,-378.75,-328.189C-467.606,-237.879,-641.613,-219.79,-670.165,-96.355C-698.243,25.03,-559.633,118.61,-508.366,232.163C-456.799,346.381,-475.573,508.321,-368.082,572.746C-260.158,637.431,-125.199,549.383,0,536.854" fill="#865b00"></path><path d="M1440 1095.117C1544.091 1093.039 1639.809 1059.151 1737.292 1022.595 1859.96 976.594 2039.3609999999999 977.219 2083.413 853.837 2128.707 726.977 1948.933 622.895 1927.48 489.911 1906.637 360.712 2043.605 209.925 1962.914 106.892 1883.533 5.532000000000039 1716.601 59.58800000000002 1587.898 56.30500000000001 1489.988 53.807000000000016 1398.252 71.892 1302.005 90.03300000000002 1194.055 110.38 1067.517 92.382 988.981 169.18900000000002 909.815 246.61200000000002 929.419 375.51300000000003 900.737 482.466 867.365 606.907 756.282 730.659 806.599 849.265 856.703 967.369 1015.381 988.198 1134.98 1034.62 1233.608 1072.902 1334.224 1097.229 1440 1095.117" fill="#fead00"></path></g><defs><mask id="SvgjsMask1002"><rect width="1440" height="560" fill="#ffffff"></rect></mask></defs></svg>